<svg xmlns="http://www.w3.org/2000/svg" xmlns:xlink="http://www.w3.org/1999/xlink" width="500" zoomAndPan="magnify" viewBox="0 0 375 374.999991" height="500" preserveAspectRatio="xMidYMid meet" version="1.0"><defs><g/><clipPath id="id1"><path d="M 12.757812 10.507812 L 366.757812 10.507812 L 366.757812 364.507812 L 12.757812 364.507812 Z M 12.757812 10.507812 " clip-rule="nonzero"/></clipPath></defs><g clip-path="url(#id1)"><path fill="#000000" d="M 189.757812 364.507812 C 92.160156 364.507812 12.757812 285.105469 12.757812 187.507812 C 12.757812 89.910156 92.160156 10.507812 189.757812 10.507812 C 287.355469 10.507812 366.757812 89.910156 366.757812 187.507812 C 366.757812 285.105469 287.355469 364.507812 189.757812 364.507812 Z M 189.757812 13.644531 C 93.886719 13.644531 15.894531 91.636719 15.894531 187.507812 C 15.894531 283.375 93.886719 361.367188 189.757812 361.367188 C 285.625 361.367188 363.617188 283.375 363.617188 187.507812 C 363.617188 91.636719 285.625 13.644531 189.757812 13.644531 Z M 189.757812 13.644531 " fill-opacity="1" fill-rule="nonzero"/></g><path fill="#ffebed" d="M 89.621094 169.632812 C 87.628906 174.820312 80.601562 182.039062 81.195312 187.371094 C 81.789062 192.703125 90.34375 198.878906 93.175781 201.625 C 96.550781 204.898438 141.761719 206.621094 148.679688 206.828125 C 183.472656 207.882812 218.308594 207.238281 253.09375 208.488281 C 257.539062 208.648438 284.1875 211.167969 286.738281 208.21875 C 287.519531 207.3125 296.5625 200.074219 296.949219 192.753906 C 297.304688 185.996094 289.027344 179.152344 289.105469 177.472656 L 89.621094 169.632812 " fill-opacity="1" fill-rule="evenodd"/><path fill="#dfb1b6" d="M 80.375 169.121094 L 78.121094 160.703125 C 85.441406 150.238281 95.230469 137.847656 107.210938 134.246094 C 125.769531 128.667969 250.039062 127.40625 275.6875 141.527344 C 285.496094 146.925781 290.300781 160.335938 296.132812 169.90625 L 296.203125 170.015625 C 290.117188 179.453125 87.453125 179.75 80.375 169.121094 " fill-opacity="1" fill-rule="evenodd"/><path fill="#dfb1b6" d="M 293.464844 203.160156 L 295.71875 212.0625 C 288.386719 223.136719 278.59375 236.25 266.609375 240.066406 C 248.046875 245.980469 123.773438 247.398438 98.132812 232.480469 C 88.328125 226.773438 83.535156 212.589844 77.707031 202.472656 L 77.636719 202.355469 C 83.730469 192.367188 286.394531 191.917969 293.464844 203.160156 " fill-opacity="1" fill-rule="evenodd"/><path fill="#c0838a" d="M 89.511719 162.996094 C 86.578125 162.574219 83.308594 161.992188 80.355469 162.554688 C 76.824219 163.230469 70.820312 170.476562 74.183594 172.460938 C 85.277344 179.011719 100.242188 175.054688 113.324219 177.109375 C 122.402344 178.535156 126.492188 177.523438 135.046875 177.742188 C 145.667969 178.015625 156.273438 178.621094 166.875 178.964844 C 171.84375 179.125 176.8125 178.449219 181.769531 178.628906 C 190.820312 178.953125 199.894531 180.628906 208.933594 180.960938 C 217.488281 181.273438 226.160156 180.117188 234.710938 180.46875 C 239.933594 180.6875 243.867188 181.71875 249.253906 181.386719 C 251.59375 181.242188 253.867188 181.761719 256.230469 181.589844 C 259.089844 181.375 261.957031 180.347656 264.808594 180.351562 C 266.917969 180.351562 268.859375 181.257812 270.964844 181.246094 C 276.636719 181.214844 292.117188 180.007812 296.570312 177.898438 C 298.746094 176.867188 300.980469 173.261719 301 171.292969 C 301.101562 162.328125 275.832031 167.140625 270.59375 167.121094 C 264.726562 167.097656 259.132812 165.402344 253.210938 165.566406 C 245.574219 165.773438 237.214844 169.039062 229.664062 167.984375 C 223.128906 167.070312 219.234375 162.683594 212.117188 162.585938 C 202.890625 162.457031 194.511719 166.339844 185.238281 166.726562 C 173.023438 167.238281 160.882812 165.226562 148.714844 164.71875 C 143.390625 164.496094 138.222656 165.273438 132.9375 165.210938 C 128.597656 165.160156 124.300781 163.707031 120.183594 162.820312 C 113.375 161.363281 106.9375 161.105469 99.964844 161.703125 L 89.511719 162.996094 " fill-opacity="1" fill-rule="evenodd"/><path fill="#c0838a" d="M 285.355469 207.589844 C 288.289062 208.082031 291.558594 208.761719 294.511719 208.089844 C 298.046875 207.289062 304.066406 198.710938 300.707031 196.371094 C 289.625 188.65625 274.65625 193.363281 261.574219 190.964844 C 252.5 189.300781 248.40625 190.503906 239.851562 190.257812 C 229.234375 189.957031 218.625 189.269531 208.023438 188.882812 C 203.054688 188.703125 198.085938 189.511719 193.128906 189.3125 C 184.078125 188.945312 175.007812 186.988281 165.96875 186.613281 C 157.417969 186.261719 148.742188 187.648438 140.191406 187.25 C 134.96875 187.003906 131.035156 185.789062 125.652344 186.195312 C 123.308594 186.371094 121.039062 185.757812 118.671875 185.972656 C 115.816406 186.230469 112.945312 187.449219 110.09375 187.453125 C 107.980469 187.453125 106.042969 186.386719 103.9375 186.40625 C 98.265625 186.457031 82.785156 187.914062 78.324219 190.417969 C 76.148438 191.640625 73.90625 195.90625 73.878906 198.234375 C 73.761719 208.824219 99.039062 203.085938 104.277344 203.097656 C 110.148438 203.113281 115.738281 205.101562 121.660156 204.898438 C 129.296875 204.636719 137.660156 200.757812 145.214844 201.988281 C 151.746094 203.054688 155.628906 208.234375 162.746094 208.335938 C 171.972656 208.464844 180.363281 203.859375 189.636719 203.382812 C 201.851562 202.753906 213.988281 205.105469 226.15625 205.679688 C 231.480469 205.929688 236.652344 205.003906 241.933594 205.066406 C 246.273438 205.117188 250.566406 206.824219 254.6875 207.859375 C 261.492188 209.570312 267.925781 209.859375 274.902344 209.140625 L 285.355469 207.589844 " fill-opacity="1" fill-rule="evenodd"/><g fill="#000000" fill-opacity="1"><g transform="translate(49.341611, 154.406131)"><g><path d="M -16.828125 -16.875 L -19.921875 -8.125 L -19.453125 -7.953125 L -18.890625 -9.578125 L 0.421875 -2.75 L -0.140625 -1.125 L 0.34375 -0.953125 L 3.4375 -9.703125 C 3.925781 -11.097656 4.066406 -12.414062 3.859375 -13.65625 C 3.648438 -14.90625 3.191406 -16.046875 2.484375 -17.078125 C 1.773438 -18.109375 0.875 -19.015625 -0.21875 -19.796875 C -1.320312 -20.578125 -2.503906 -21.191406 -3.765625 -21.640625 C -5.023438 -22.085938 -6.320312 -22.347656 -7.65625 -22.421875 C -8.988281 -22.503906 -10.253906 -22.367188 -11.453125 -22.015625 C -12.648438 -21.660156 -13.722656 -21.0625 -14.671875 -20.21875 C -15.617188 -19.382812 -16.335938 -18.269531 -16.828125 -16.875 Z M 2.140625 -7.59375 L -17.171875 -14.421875 L -16.625 -15.953125 C -16.4375 -16.492188 -16.132812 -16.957031 -15.71875 -17.34375 C -15.300781 -17.726562 -14.703125 -17.972656 -13.921875 -18.078125 C -13.140625 -18.179688 -12.128906 -18.128906 -10.890625 -17.921875 C -9.660156 -17.710938 -8.144531 -17.285156 -6.34375 -16.640625 L -4.890625 -16.140625 C -3.035156 -15.472656 -1.5625 -14.832031 -0.46875 -14.21875 C 0.613281 -13.613281 1.425781 -13.023438 1.96875 -12.453125 C 2.507812 -11.890625 2.816406 -11.335938 2.890625 -10.796875 C 2.960938 -10.265625 2.90625 -9.738281 2.71875 -9.21875 Z M 2.140625 -7.59375 "/></g></g></g><g fill="#000000" fill-opacity="1"><g transform="translate(57.355407, 132.71507)"><g><path d="M -18.8125 -22.0625 L -16.0625 -17.859375 L -15.59375 -18.15625 L -17.53125 -24.46875 Z M -0.34375 -14.65625 C -0.238281 -14.832031 -0.351562 -15.015625 -0.6875 -15.203125 L -6.796875 -18.484375 C -7.140625 -18.660156 -7.363281 -18.660156 -7.46875 -18.484375 C -7.5625 -18.304688 -7.441406 -18.117188 -7.109375 -17.921875 C -6.222656 -17.328125 -5.644531 -16.707031 -5.375 -16.0625 C -5.101562 -15.414062 -5.160156 -14.742188 -5.546875 -14.046875 L -6.453125 -12.328125 L -14.796875 -16.8125 L -13.640625 -18.984375 C -13.253906 -19.703125 -12.78125 -20.265625 -12.21875 -20.671875 C -11.664062 -21.085938 -11.070312 -21.375 -10.4375 -21.53125 C -9.8125 -21.695312 -9.179688 -21.738281 -8.546875 -21.65625 C -7.921875 -21.570312 -7.335938 -21.40625 -6.796875 -21.15625 C -6.546875 -21.019531 -6.367188 -21.046875 -6.265625 -21.234375 C -6.160156 -21.421875 -6.234375 -21.582031 -6.484375 -21.71875 L -10.671875 -23.671875 C -10.984375 -23.816406 -11.234375 -23.84375 -11.421875 -23.75 C -11.609375 -23.664062 -11.78125 -23.476562 -11.9375 -23.1875 L -18.484375 -11.015625 L -18.046875 -10.78125 L -17.234375 -12.296875 L 0.8125 -2.609375 L 0 -1.09375 L 0.453125 -0.84375 L 7.625 -14.171875 C 7.78125 -14.460938 7.8125 -14.703125 7.71875 -14.890625 C 7.625 -15.085938 7.445312 -15.253906 7.1875 -15.390625 L 2.578125 -17.859375 C 2.285156 -18.023438 2.085938 -18.007812 1.984375 -17.8125 C 1.878906 -17.632812 1.957031 -17.429688 2.21875 -17.203125 C 2.84375 -16.691406 3.410156 -16.1875 3.921875 -15.6875 C 4.429688 -15.195312 4.820312 -14.660156 5.09375 -14.078125 C 5.363281 -13.492188 5.476562 -12.859375 5.4375 -12.171875 C 5.40625 -11.484375 5.148438 -10.6875 4.671875 -9.78125 L 3.25 -7.125 L -6 -12.09375 L -5.09375 -13.8125 C -4.707031 -14.507812 -4.175781 -14.925781 -3.5 -15.0625 C -2.832031 -15.195312 -2 -15.054688 -1 -14.640625 C -0.65625 -14.472656 -0.4375 -14.476562 -0.34375 -14.65625 Z M -0.34375 -14.65625 "/></g></g></g><g fill="#000000" fill-opacity="1"><g transform="translate(67.678285, 114.006681)"><g><path d="M 0.375 -1.359375 L 0.78125 -1.046875 L 10.171875 -13.640625 L 5.21875 -17.34375 C 4.945312 -17.539062 4.738281 -17.546875 4.59375 -17.359375 C 4.5 -17.222656 4.53125 -17.066406 4.6875 -16.890625 C 5.269531 -16.316406 5.773438 -15.734375 6.203125 -15.140625 C 6.628906 -14.546875 6.941406 -13.941406 7.140625 -13.328125 C 7.335938 -12.722656 7.394531 -12.125 7.3125 -11.53125 C 7.238281 -10.9375 6.992188 -10.351562 6.578125 -9.78125 L 4.40625 -6.875 L -11.953125 -19.078125 L -10.921875 -20.46875 L -11.328125 -20.78125 L -16.453125 -13.90625 L -16.046875 -13.59375 L -15.015625 -14.984375 L 1.40625 -2.75 Z M 0.375 -1.359375 "/></g></g></g><g fill="#000000" fill-opacity="1"><g transform="translate(80.997805, 96.883498)"><g><path d="M -8.25 -21.703125 L -8.609375 -22.046875 L -14.546875 -15.875 L -14.1875 -15.53125 L -13 -16.765625 L 1.75 -2.5625 L 0.5625 -1.328125 L 0.9375 -0.96875 L 6.875 -7.140625 L 6.5 -7.5 L 5.296875 -6.265625 L -9.453125 -20.46875 Z M -8.25 -21.703125 "/></g></g></g><g fill="#000000" fill-opacity="1"><g transform="translate(91.148337, 86.261109)"><g><path d="M 0.125 -25.828125 C -0.550781 -25.910156 -1.300781 -25.84375 -2.125 -25.625 C -2.957031 -25.414062 -3.847656 -24.9375 -4.796875 -24.1875 C -6.179688 -23.070312 -7.191406 -21.847656 -7.828125 -20.515625 C -8.472656 -19.191406 -8.816406 -17.847656 -8.859375 -16.484375 C -8.898438 -15.117188 -8.675781 -13.773438 -8.1875 -12.453125 C -7.707031 -11.140625 -7.023438 -9.929688 -6.140625 -8.828125 C -5.273438 -7.734375 -4.253906 -6.804688 -3.078125 -6.046875 C -1.898438 -5.285156 -0.644531 -4.773438 0.6875 -4.515625 C 2.03125 -4.253906 3.421875 -4.285156 4.859375 -4.609375 C 6.296875 -4.941406 7.703125 -5.660156 9.078125 -6.765625 C 9.703125 -7.265625 10.207031 -7.78125 10.59375 -8.3125 C 10.976562 -8.84375 11.265625 -9.347656 11.453125 -9.828125 C 11.648438 -10.304688 11.773438 -10.75 11.828125 -11.15625 C 11.890625 -11.5625 11.925781 -11.882812 11.9375 -12.125 L 14.046875 -11.5 C 14.304688 -11.425781 14.476562 -11.421875 14.5625 -11.484375 C 14.644531 -11.554688 14.613281 -11.6875 14.46875 -11.875 L 9.9375 -17.546875 C 9.757812 -17.765625 9.601562 -17.820312 9.46875 -17.71875 C 9.34375 -17.613281 9.347656 -17.4375 9.484375 -17.1875 C 9.640625 -16.882812 9.820312 -16.5 10.03125 -16.03125 C 10.25 -15.5625 10.441406 -15.046875 10.609375 -14.484375 C 10.785156 -13.929688 10.914062 -13.335938 11 -12.703125 C 11.082031 -12.078125 11.0625 -11.441406 10.9375 -10.796875 C 10.820312 -10.160156 10.59375 -9.535156 10.25 -8.921875 C 9.914062 -8.304688 9.410156 -7.734375 8.734375 -7.203125 C 8.109375 -6.703125 7.5 -6.367188 6.90625 -6.203125 C 6.320312 -6.046875 5.6875 -6.101562 5 -6.375 C 4.3125 -6.644531 3.535156 -7.179688 2.671875 -7.984375 C 1.804688 -8.796875 0.789062 -9.929688 -0.375 -11.390625 L -2.359375 -13.890625 C -3.546875 -15.367188 -4.457031 -16.609375 -5.09375 -17.609375 C -5.726562 -18.617188 -6.113281 -19.476562 -6.25 -20.1875 C -6.382812 -20.90625 -6.28125 -21.539062 -5.9375 -22.09375 C -5.601562 -22.65625 -5.046875 -23.25 -4.265625 -23.875 C -3.640625 -24.363281 -3.003906 -24.695312 -2.359375 -24.875 C -1.710938 -25.050781 -1.035156 -25.09375 -0.328125 -25 C 0.378906 -24.914062 1.101562 -24.710938 1.84375 -24.390625 C 2.59375 -24.066406 3.378906 -23.644531 4.203125 -23.125 C 4.390625 -23 4.550781 -22.988281 4.6875 -23.09375 C 4.800781 -23.1875 4.789062 -23.316406 4.65625 -23.484375 L 1.140625 -27.890625 C 0.929688 -28.148438 0.726562 -28.203125 0.53125 -28.046875 C 0.394531 -27.941406 0.328125 -27.765625 0.328125 -27.515625 Z M 0.125 -25.828125 "/></g></g></g><g fill="#000000" fill-opacity="1"><g transform="translate(109.264487, 72.046629)"><g><path d="M -1.90625 -23.796875 L 2 -3.59375 C 2.082031 -3.132812 2.035156 -2.664062 1.859375 -2.1875 C 1.679688 -1.71875 1.289062 -1.316406 0.6875 -0.984375 L 0.9375 -0.53125 L 5.140625 -2.875 L 4.890625 -3.328125 C 4.566406 -3.140625 4.28125 -3.019531 4.03125 -2.96875 C 3.789062 -2.914062 3.585938 -2.90625 3.421875 -2.9375 C 3.253906 -2.976562 3.117188 -3.050781 3.015625 -3.15625 C 2.910156 -3.257812 2.832031 -3.359375 2.78125 -3.453125 C 2.71875 -3.554688 2.664062 -3.65625 2.625 -3.75 C 2.582031 -3.84375 2.550781 -3.976562 2.53125 -4.15625 L 1.625 -8.53125 L 7.21875 -11.65625 L 11.984375 -7.28125 L 10.484375 -6.453125 L 10.734375 -6 L 18.234375 -10.171875 L 17.984375 -10.625 L 16.46875 -9.78125 L 0.015625 -24.875 Z M -0.328125 -18.5625 L 6.78125 -12.015625 L 1.53125 -9.078125 Z M -0.328125 -18.5625 "/></g></g></g><g fill="#000000" fill-opacity="1"><g transform="translate(131.022239, 60.303207)"><g><path d="M 11.359375 -4.65625 L 4.390625 -23.921875 L 5.625 -24.375 C 6.644531 -24.738281 7.691406 -24.5625 8.765625 -23.84375 C 9.847656 -23.125 10.84375 -21.984375 11.75 -20.421875 L 12.359375 -20.640625 L 9.984375 -25.765625 C 9.898438 -25.941406 9.78125 -26.066406 9.625 -26.140625 C 9.476562 -26.222656 9.242188 -26.207031 8.921875 -26.09375 L -5.4375 -20.90625 C -5.6875 -20.8125 -5.835938 -20.6875 -5.890625 -20.53125 C -5.953125 -20.375 -5.960938 -20.203125 -5.921875 -20.015625 L -4.453125 -14.5625 L -3.84375 -14.78125 C -4.15625 -16.5625 -4.125 -18.070312 -3.75 -19.3125 C -3.375 -20.5625 -2.675781 -21.367188 -1.65625 -21.734375 L -0.421875 -22.171875 L 6.546875 -2.90625 L 4.921875 -2.328125 L 5.09375 -1.84375 L 13.15625 -4.75 L 12.984375 -5.234375 Z M 11.359375 -4.65625 "/></g></g></g><g fill="#000000" fill-opacity="1"><g transform="translate(152.226157, 52.93923)"><g><path d="M 11.09375 -9.578125 C 11.300781 -9.617188 11.363281 -9.828125 11.28125 -10.203125 L 9.9375 -17.015625 C 9.863281 -17.390625 9.722656 -17.554688 9.515625 -17.515625 C 9.328125 -17.472656 9.257812 -17.265625 9.3125 -16.890625 C 9.414062 -15.828125 9.304688 -14.988281 8.984375 -14.375 C 8.660156 -13.757812 8.101562 -13.375 7.3125 -13.21875 L 5.40625 -12.84375 L 3.5625 -22.125 L 5.96875 -22.59375 C 6.78125 -22.757812 7.519531 -22.753906 8.1875 -22.578125 C 8.863281 -22.410156 9.460938 -22.132812 9.984375 -21.75 C 10.503906 -21.363281 10.929688 -20.898438 11.265625 -20.359375 C 11.597656 -19.828125 11.84375 -19.273438 12 -18.703125 C 12.0625 -18.429688 12.195312 -18.3125 12.40625 -18.34375 C 12.613281 -18.394531 12.6875 -18.554688 12.625 -18.828125 L 11.484375 -23.296875 C 11.390625 -23.628906 11.25 -23.84375 11.0625 -23.9375 C 10.875 -24.03125 10.625 -24.046875 10.3125 -23.984375 L -3.25 -21.28125 L -3.15625 -20.78125 L -1.46875 -21.109375 L 2.53125 -1.015625 L 0.84375 -0.6875 L 0.9375 -0.1875 L 15.78125 -3.140625 C 16.113281 -3.203125 16.320312 -3.328125 16.40625 -3.515625 C 16.488281 -3.710938 16.5 -3.957031 16.4375 -4.25 L 15.421875 -9.375 C 15.359375 -9.707031 15.222656 -9.851562 15.015625 -9.8125 C 14.804688 -9.769531 14.703125 -9.570312 14.703125 -9.21875 C 14.691406 -8.414062 14.65625 -7.65625 14.59375 -6.9375 C 14.539062 -6.226562 14.375 -5.585938 14.09375 -5.015625 C 13.8125 -4.441406 13.394531 -3.945312 12.84375 -3.53125 C 12.300781 -3.113281 11.53125 -2.804688 10.53125 -2.609375 L 7.5625 -2.03125 L 5.5 -12.328125 L 7.40625 -12.703125 C 8.195312 -12.859375 8.859375 -12.71875 9.390625 -12.28125 C 9.921875 -11.851562 10.34375 -11.117188 10.65625 -10.078125 C 10.757812 -9.703125 10.90625 -9.535156 11.09375 -9.578125 Z M 11.09375 -9.578125 "/></g></g></g><g fill="#000000" fill-opacity="1"><g transform="translate(173.540567, 49.188645)"><g/></g></g><g fill="#000000" fill-opacity="1"><g transform="translate(185.767816, 47.834789)"><g><path d="M 1.078125 -0.453125 L 1.046875 0.0625 L 5.015625 0.328125 L 5.046875 -0.1875 C 4.617188 -0.207031 4.238281 -0.367188 3.90625 -0.671875 C 3.570312 -0.972656 3.421875 -1.398438 3.453125 -1.953125 L 4.65625 -20.09375 L 10.40625 0.6875 L 11.3125 0.75 L 19.90625 -19.203125 L 18.59375 0.71875 L 16.890625 0.59375 L 16.859375 1.109375 L 25.390625 1.671875 L 25.421875 1.15625 L 23.71875 1.046875 L 25.078125 -19.390625 L 26.78125 -19.28125 L 26.8125 -19.78125 L 19.6875 -20.25 L 13.5625 -6.203125 L 9.3125 -20.9375 L 2.46875 -21.390625 L 2.4375 -20.890625 L 4.15625 -20.765625 L 2.90625 -1.984375 C 2.875 -1.429688 2.671875 -1.03125 2.296875 -0.78125 C 1.929688 -0.53125 1.523438 -0.421875 1.078125 -0.453125 Z M 1.078125 -0.453125 "/></g></g></g><g fill="#000000" fill-opacity="1"><g transform="translate(215.006536, 50.264795)"><g><path d="M 15.015625 -18.546875 L 3.9375 -1.234375 C 3.675781 -0.835938 3.316406 -0.523438 2.859375 -0.296875 C 2.398438 -0.078125 1.835938 -0.0546875 1.171875 -0.234375 L 1.046875 0.265625 L 5.703125 1.46875 L 5.828125 0.96875 C 5.460938 0.875 5.175781 0.757812 4.96875 0.625 C 4.769531 0.5 4.617188 0.363281 4.515625 0.21875 C 4.410156 0.0703125 4.359375 -0.0703125 4.359375 -0.21875 C 4.359375 -0.363281 4.367188 -0.488281 4.390625 -0.59375 C 4.421875 -0.707031 4.453125 -0.8125 4.484375 -0.90625 C 4.523438 -1 4.59375 -1.117188 4.6875 -1.265625 L 7.0625 -5.0625 L 13.265625 -3.46875 L 13.703125 2.984375 L 12.03125 2.5625 L 11.90625 3.0625 L 20.21875 5.1875 L 20.34375 4.6875 L 18.65625 4.265625 L 17.15625 -18 Z M 12.5625 -13.671875 L 13.1875 -4.015625 L 7.359375 -5.515625 Z M 12.5625 -13.671875 "/></g></g></g><g fill="#000000" fill-opacity="1"><g transform="translate(238.85187, 56.725748)"><g><path d="M 22.96875 -11.84375 C 22.71875 -12.488281 22.304688 -13.128906 21.734375 -13.765625 C 21.160156 -14.398438 20.320312 -14.960938 19.21875 -15.453125 C 17.59375 -16.171875 16.039062 -16.503906 14.5625 -16.453125 C 13.082031 -16.398438 11.726562 -16.078125 10.5 -15.484375 C 9.28125 -14.898438 8.195312 -14.082031 7.25 -13.03125 C 6.300781 -11.988281 5.539062 -10.820312 4.96875 -9.53125 C 4.40625 -8.257812 4.054688 -6.925781 3.921875 -5.53125 C 3.796875 -4.144531 3.925781 -2.796875 4.3125 -1.484375 C 4.707031 -0.171875 5.382812 1.039062 6.34375 2.15625 C 7.300781 3.28125 8.582031 4.195312 10.1875 4.90625 C 10.925781 5.226562 11.617188 5.4375 12.265625 5.53125 C 12.910156 5.625 13.492188 5.644531 14.015625 5.59375 C 14.535156 5.539062 14.984375 5.445312 15.359375 5.3125 C 15.742188 5.1875 16.046875 5.070312 16.265625 4.96875 L 16.703125 7.125 C 16.765625 7.375 16.84375 7.519531 16.9375 7.5625 C 17.03125 7.601562 17.117188 7.519531 17.203125 7.3125 L 20.140625 0.671875 C 20.253906 0.410156 20.234375 0.25 20.078125 0.1875 C 19.941406 0.125 19.785156 0.207031 19.609375 0.4375 C 19.421875 0.71875 19.171875 1.0625 18.859375 1.46875 C 18.546875 1.875 18.179688 2.28125 17.765625 2.6875 C 17.347656 3.101562 16.878906 3.488281 16.359375 3.84375 C 15.847656 4.207031 15.28125 4.484375 14.65625 4.671875 C 14.03125 4.867188 13.363281 4.957031 12.65625 4.9375 C 11.957031 4.925781 11.210938 4.742188 10.421875 4.390625 C 9.703125 4.078125 9.128906 3.695312 8.703125 3.25 C 8.285156 2.8125 8.035156 2.21875 7.953125 1.46875 C 7.878906 0.726562 8 -0.207031 8.3125 -1.34375 C 8.632812 -2.476562 9.171875 -3.898438 9.921875 -5.609375 L 11.21875 -8.53125 C 11.976562 -10.257812 12.65625 -11.632812 13.25 -12.65625 C 13.84375 -13.6875 14.421875 -14.425781 14.984375 -14.875 C 15.554688 -15.332031 16.171875 -15.539062 16.828125 -15.5 C 17.484375 -15.457031 18.269531 -15.234375 19.1875 -14.828125 C 19.90625 -14.503906 20.488281 -14.097656 20.9375 -13.609375 C 21.394531 -13.117188 21.75 -12.539062 22 -11.875 C 22.257812 -11.207031 22.414062 -10.46875 22.46875 -9.65625 C 22.53125 -8.84375 22.519531 -7.953125 22.4375 -6.984375 C 22.414062 -6.765625 22.484375 -6.617188 22.640625 -6.546875 C 22.765625 -6.492188 22.867188 -6.566406 22.953125 -6.765625 L 25.234375 -11.921875 C 25.367188 -12.222656 25.320312 -12.421875 25.09375 -12.515625 C 24.945312 -12.585938 24.765625 -12.570312 24.546875 -12.46875 Z M 22.96875 -11.84375 "/></g></g></g><g fill="#000000" fill-opacity="1"><g transform="translate(259.840855, 66.197196)"><g><path d="M 20.203125 -12.703125 L 4.109375 0.109375 C 3.753906 0.398438 3.320312 0.570312 2.8125 0.625 C 2.300781 0.6875 1.757812 0.53125 1.1875 0.15625 L 0.90625 0.59375 L 4.921875 3.234375 L 5.203125 2.796875 C 4.890625 2.585938 4.65625 2.390625 4.5 2.203125 C 4.351562 2.015625 4.253906 1.835938 4.203125 1.671875 C 4.160156 1.503906 4.160156 1.347656 4.203125 1.203125 C 4.242188 1.066406 4.289062 0.953125 4.34375 0.859375 C 4.414062 0.753906 4.484375 0.660156 4.546875 0.578125 C 4.609375 0.503906 4.710938 0.421875 4.859375 0.328125 L 8.3125 -2.5 L 13.671875 1 L 12 7.25 L 10.5625 6.296875 L 10.28125 6.734375 L 17.46875 11.4375 L 17.75 11 L 16.296875 10.046875 L 22.046875 -11.5 Z M 16.296875 -8.90625 L 13.796875 0.453125 L 8.765625 -2.84375 Z M 16.296875 -8.90625 "/></g></g></g><g fill="#000000" fill-opacity="1"><g transform="translate(280.321459, 79.941787)"><g><path d="M 15.203125 9.328125 L 17.015625 7.375 C 17.816406 6.507812 18.226562 5.476562 18.25 4.28125 C 18.28125 3.082031 17.753906 1.851562 16.671875 0.59375 C 17.171875 0.894531 17.710938 1.179688 18.296875 1.453125 C 18.878906 1.734375 19.488281 1.898438 20.125 1.953125 C 20.757812 2.015625 21.398438 1.9375 22.046875 1.71875 C 22.703125 1.5 23.332031 1.0625 23.9375 0.40625 C 25.207031 -0.957031 25.695312 -2.390625 25.40625 -3.890625 C 25.113281 -5.390625 24.164062 -6.882812 22.5625 -8.375 L 15.34375 -15.09375 L 15 -14.71875 L 16.25 -13.5625 L 2.296875 1.4375 L 1.046875 0.28125 L 0.703125 0.65625 L 6.984375 6.484375 L 7.328125 6.109375 L 6.0625 4.953125 L 13.046875 -2.5625 L 14.234375 -1.46875 C 14.554688 -1.164062 14.804688 -0.847656 14.984375 -0.515625 C 15.171875 -0.191406 15.25 0.160156 15.21875 0.546875 C 15.1875 0.941406 15.023438 1.390625 14.734375 1.890625 C 14.453125 2.390625 14.003906 2.96875 13.390625 3.625 L 11.9375 5.1875 C 11.332031 5.832031 10.890625 6.453125 10.609375 7.046875 C 10.335938 7.640625 10.207031 8.191406 10.21875 8.703125 C 10.226562 9.222656 10.363281 9.710938 10.625 10.171875 C 10.894531 10.640625 11.253906 11.082031 11.703125 11.5 C 12.359375 12.113281 13.148438 12.53125 14.078125 12.75 C 15.003906 12.96875 16.015625 12.847656 17.109375 12.390625 C 17.203125 12.359375 17.28125 12.320312 17.34375 12.28125 C 17.40625 12.25 17.457031 12.207031 17.5 12.15625 C 17.582031 12.070312 17.582031 12 17.5 11.9375 C 17.414062 11.851562 17.226562 11.863281 16.9375 11.96875 C 16.257812 12.15625 15.722656 12.226562 15.328125 12.1875 C 14.929688 12.15625 14.640625 12.054688 14.453125 11.890625 C 14.078125 11.535156 13.992188 11.140625 14.203125 10.703125 C 14.410156 10.273438 14.742188 9.816406 15.203125 9.328125 Z M 14.265625 -2.140625 L 13.40625 -2.9375 L 20.015625 -10.046875 L 20.875 -9.25 C 21.175781 -8.976562 21.457031 -8.648438 21.71875 -8.265625 C 21.976562 -7.890625 22.128906 -7.453125 22.171875 -6.953125 C 22.222656 -6.453125 22.113281 -5.875 21.84375 -5.21875 C 21.570312 -4.570312 21.054688 -3.835938 20.296875 -3.015625 C 19.566406 -2.242188 18.898438 -1.707031 18.296875 -1.40625 C 17.691406 -1.113281 17.140625 -0.972656 16.640625 -0.984375 C 16.140625 -1.003906 15.691406 -1.132812 15.296875 -1.375 C 14.910156 -1.613281 14.566406 -1.867188 14.265625 -2.140625 Z M 14.265625 -2.140625 "/></g></g></g><g fill="#000000" fill-opacity="1"><g transform="translate(298.076566, 96.751572)"><g><path d="M 9.25 -5.625 C 8.132812 -4.78125 7.179688 -3.78125 6.390625 -2.625 C 5.597656 -1.476562 5.039062 -0.242188 4.71875 1.078125 C 4.40625 2.398438 4.378906 3.757812 4.640625 5.15625 C 4.910156 6.5625 5.550781 7.929688 6.5625 9.265625 C 7.570312 10.597656 8.71875 11.578125 10 12.203125 C 11.28125 12.835938 12.597656 13.179688 13.953125 13.234375 C 15.304688 13.285156 16.644531 13.078125 17.96875 12.609375 C 19.289062 12.148438 20.507812 11.5 21.625 10.65625 C 22.726562 9.820312 23.675781 8.828125 24.46875 7.671875 C 25.269531 6.515625 25.828125 5.28125 26.140625 3.96875 C 26.453125 2.65625 26.472656 1.300781 26.203125 -0.09375 C 25.941406 -1.5 25.304688 -2.867188 24.296875 -4.203125 C 23.285156 -5.535156 22.140625 -6.515625 20.859375 -7.140625 C 19.578125 -7.773438 18.257812 -8.125 16.90625 -8.1875 C 15.5625 -8.25 14.222656 -8.046875 12.890625 -7.578125 C 11.566406 -7.109375 10.351562 -6.457031 9.25 -5.625 Z M 23.828125 -3.859375 C 24.367188 -3.140625 24.664062 -2.460938 24.71875 -1.828125 C 24.78125 -1.203125 24.609375 -0.554688 24.203125 0.109375 C 23.804688 0.773438 23.1875 1.488281 22.34375 2.25 C 21.507812 3.007812 20.457031 3.875 19.1875 4.84375 L 16.640625 6.765625 C 15.242188 7.828125 14.054688 8.664062 13.078125 9.28125 C 12.097656 9.90625 11.25 10.3125 10.53125 10.5 C 9.820312 10.6875 9.191406 10.648438 8.640625 10.390625 C 8.097656 10.128906 7.554688 9.640625 7.015625 8.921875 C 6.472656 8.210938 6.144531 7.554688 6.03125 6.953125 C 5.925781 6.359375 6.054688 5.738281 6.421875 5.09375 C 6.796875 4.445312 7.414062 3.738281 8.28125 2.96875 C 9.144531 2.195312 10.273438 1.28125 11.671875 0.21875 L 14.21875 -1.703125 C 15.488281 -2.671875 16.597656 -3.457031 17.546875 -4.0625 C 18.503906 -4.675781 19.351562 -5.085938 20.09375 -5.296875 C 20.84375 -5.503906 21.515625 -5.492188 22.109375 -5.265625 C 22.710938 -5.035156 23.285156 -4.566406 23.828125 -3.859375 Z M 23.828125 -3.859375 "/></g></g></g><g fill="#000000" fill-opacity="1"><g transform="translate(313.258093, 117.376287)"><g><path d="M 25.421875 3.234375 C 25.628906 3.628906 25.691406 4.046875 25.609375 4.484375 C 25.523438 4.929688 25.238281 5.28125 24.75 5.53125 L 14.921875 10.6875 L 22.390625 -3.59375 L 19.5 -9.09375 L 18.796875 -8.71875 L 17.5625 -5.796875 L 3.328125 1.671875 C 2.835938 1.929688 2.390625 1.96875 1.984375 1.78125 C 1.578125 1.601562 1.269531 1.316406 1.0625 0.921875 L 0.609375 1.15625 L 2.453125 4.671875 L 2.90625 4.4375 C 2.71875 4.070312 2.660156 3.660156 2.734375 3.203125 C 2.804688 2.753906 3.085938 2.398438 3.578125 2.140625 L 17.140625 -4.96875 L 7.15625 14.15625 L 7.671875 15.109375 L 25.0625 5.96875 C 25.539062 5.726562 25.976562 5.707031 26.375 5.90625 C 26.78125 6.101562 27.082031 6.390625 27.28125 6.765625 L 27.71875 6.53125 L 25.859375 3 Z M 25.421875 3.234375 "/></g></g></g><g fill="#000000" fill-opacity="1"><g transform="translate(323.526179, 137.59094)"><g><path d="M 25.265625 6.5625 L 23.828125 6.1875 C 23.960938 5.664062 24.054688 5 24.109375 4.1875 C 24.171875 3.382812 24.015625 2.441406 23.640625 1.359375 C 23.253906 0.253906 22.71875 -0.640625 22.03125 -1.328125 C 21.351562 -2.023438 20.601562 -2.550781 19.78125 -2.90625 C 18.96875 -3.257812 18.109375 -3.441406 17.203125 -3.453125 C 16.304688 -3.472656 15.457031 -3.34375 14.65625 -3.0625 C 13.226562 -2.5625 12.148438 -1.800781 11.421875 -0.78125 C 10.691406 0.226562 10.378906 1.582031 10.484375 3.28125 C 10.503906 3.675781 10.535156 4.097656 10.578125 4.546875 C 10.628906 5.003906 10.679688 5.457031 10.734375 5.90625 C 10.785156 6.351562 10.828125 6.757812 10.859375 7.125 C 10.898438 7.488281 10.921875 7.78125 10.921875 8 C 10.984375 9.019531 10.8125 9.785156 10.40625 10.296875 C 10 10.816406 9.375 11.222656 8.53125 11.515625 C 8.125 11.648438 7.664062 11.707031 7.15625 11.6875 C 6.65625 11.675781 6.148438 11.5625 5.640625 11.34375 C 5.140625 11.132812 4.660156 10.796875 4.203125 10.328125 C 3.753906 9.867188 3.398438 9.265625 3.140625 8.515625 C 2.796875 7.515625 2.679688 6.59375 2.796875 5.75 C 2.910156 4.914062 3.171875 4.144531 3.578125 3.4375 C 3.992188 2.726562 4.507812 2.085938 5.125 1.515625 C 5.738281 0.953125 6.367188 0.445312 7.015625 0 C 7.265625 -0.175781 7.375 -0.316406 7.34375 -0.421875 C 7.320312 -0.484375 7.273438 -0.515625 7.203125 -0.515625 C 7.128906 -0.523438 6.992188 -0.492188 6.796875 -0.421875 L 0.890625 1.609375 C 0.773438 1.648438 0.671875 1.703125 0.578125 1.765625 C 0.492188 1.828125 0.472656 1.914062 0.515625 2.03125 C 0.554688 2.164062 0.742188 2.273438 1.078125 2.359375 L 2.828125 2.78125 C 2.691406 3.0625 2.5625 3.382812 2.4375 3.75 C 2.3125 4.125 2.21875 4.550781 2.15625 5.03125 C 2.09375 5.507812 2.085938 6.050781 2.140625 6.65625 C 2.191406 7.257812 2.347656 7.941406 2.609375 8.703125 C 3.015625 9.878906 3.566406 10.84375 4.265625 11.59375 C 4.960938 12.351562 5.734375 12.910156 6.578125 13.265625 C 7.429688 13.617188 8.316406 13.800781 9.234375 13.8125 C 10.160156 13.820312 11.050781 13.675781 11.90625 13.375 C 13.75 12.738281 15.082031 11.765625 15.90625 10.453125 C 16.726562 9.148438 17 7.546875 16.71875 5.640625 C 16.632812 5.160156 16.5625 4.578125 16.5 3.890625 C 16.4375 3.203125 16.398438 2.585938 16.390625 2.046875 C 16.398438 1.347656 16.597656 0.78125 16.984375 0.34375 C 17.378906 -0.09375 17.953125 -0.441406 18.703125 -0.703125 C 19.109375 -0.835938 19.523438 -0.90625 19.953125 -0.90625 C 20.390625 -0.90625 20.804688 -0.816406 21.203125 -0.640625 C 21.609375 -0.460938 21.972656 -0.195312 22.296875 0.15625 C 22.628906 0.519531 22.894531 0.984375 23.09375 1.546875 C 23.25 2.015625 23.347656 2.515625 23.390625 3.046875 C 23.429688 3.578125 23.359375 4.132812 23.171875 4.71875 C 22.992188 5.300781 22.660156 5.898438 22.171875 6.515625 C 21.691406 7.128906 21.019531 7.734375 20.15625 8.328125 C 19.882812 8.492188 19.769531 8.632812 19.8125 8.75 C 19.84375 8.84375 19.90625 8.878906 20 8.859375 C 20.101562 8.835938 20.210938 8.804688 20.328125 8.765625 L 25.40625 7.015625 C 25.59375 6.941406 25.664062 6.859375 25.625 6.765625 C 25.59375 6.660156 25.472656 6.59375 25.265625 6.5625 Z M 25.265625 6.5625 "/></g></g></g><g fill="#000000" fill-opacity="1"><g transform="translate(37.848393, 259.085899)"><g><path d="M 13.8125 3.734375 C 14.238281 3.460938 14.546875 3.140625 14.734375 2.765625 C 14.921875 2.390625 15.007812 1.96875 15 1.5 C 15 1.039062 14.898438 0.550781 14.703125 0.03125 C 14.503906 -0.488281 14.222656 -1.039062 13.859375 -1.625 L 11.0625 -6.15625 L 10.8125 -6 L 11.34375 -5.125 L 1.09375 1.21875 L 0.5625 0.34375 L 0.3125 0.5 L 3.390625 5.46875 C 3.679688 5.945312 4.007812 6.375 4.375 6.75 C 4.75 7.125 5.144531 7.40625 5.5625 7.59375 C 5.988281 7.78125 6.457031 7.847656 6.96875 7.796875 C 7.476562 7.742188 8.015625 7.546875 8.578125 7.203125 C 9.097656 6.878906 9.46875 6.503906 9.6875 6.078125 C 9.90625 5.648438 10.019531 5.203125 10.03125 4.734375 C 10.050781 4.265625 10 3.800781 9.875 3.34375 C 9.757812 2.882812 9.617188 2.484375 9.453125 2.140625 C 9.679688 2.441406 9.941406 2.757812 10.234375 3.09375 C 10.523438 3.425781 10.851562 3.6875 11.21875 3.875 C 11.582031 4.070312 11.976562 4.175781 12.40625 4.1875 C 12.832031 4.195312 13.300781 4.046875 13.8125 3.734375 Z M 8.421875 0.234375 L 12.9375 -2.5625 L 13.4375 -1.75 C 13.769531 -1.21875 13.863281 -0.753906 13.71875 -0.359375 C 13.570312 0.0351562 13.164062 0.441406 12.5 0.859375 L 11.828125 1.28125 C 11.179688 1.675781 10.625 1.875 10.15625 1.875 C 9.6875 1.882812 9.300781 1.648438 9 1.171875 Z M 2.6875 3.78125 L 8.15625 0.40625 L 8.84375 1.515625 C 9.03125 1.816406 9.117188 2.082031 9.109375 2.3125 C 9.109375 2.550781 9.035156 2.785156 8.890625 3.015625 C 8.753906 3.242188 8.546875 3.460938 8.265625 3.671875 C 7.984375 3.878906 7.65625 4.097656 7.28125 4.328125 L 6.609375 4.75 C 6.273438 4.957031 5.957031 5.144531 5.65625 5.3125 C 5.351562 5.476562 5.066406 5.582031 4.796875 5.625 C 4.535156 5.675781 4.285156 5.648438 4.046875 5.546875 C 3.804688 5.441406 3.582031 5.222656 3.375 4.890625 Z M 2.6875 3.78125 "/></g></g></g><g fill="#000000" fill-opacity="1"><g transform="translate(47.198607, 273.665453)"><g><path d="M 13.6875 -3.171875 L 2.28125 0.84375 C 2 0.9375 1.710938 0.953125 1.421875 0.890625 C 1.128906 0.828125 0.863281 0.632812 0.625 0.3125 L 0.390625 0.5 L 2.125 2.75 L 2.359375 2.5625 C 2.210938 2.375 2.113281 2.210938 2.0625 2.078125 C 2.019531 1.953125 2 1.835938 2 1.734375 C 2.007812 1.628906 2.039062 1.546875 2.09375 1.484375 C 2.144531 1.421875 2.195312 1.367188 2.25 1.328125 C 2.3125 1.273438 2.363281 1.234375 2.40625 1.203125 C 2.445312 1.171875 2.519531 1.140625 2.625 1.109375 L 5.109375 0.203125 L 7.421875 3.1875 L 5.28125 6.34375 L 4.65625 5.53125 L 4.421875 5.71875 L 7.5 9.703125 L 7.734375 9.515625 L 7.125 8.734375 L 14.46875 -2.140625 Z M 10.765625 -1.8125 L 7.578125 2.90625 L 5.421875 0.109375 Z M 10.765625 -1.8125 "/></g></g></g><g fill="#000000" fill-opacity="1"><g transform="translate(59.055402, 288.464816)"><g><path d="M 12.875 -4.4375 L 13.078125 -4.65625 L 9.578125 -8.28125 L 9.375 -8.0625 L 10.078125 -7.34375 L 1.40625 1.015625 L 0.703125 0.296875 L 0.484375 0.5 L 3.984375 4.125 L 4.203125 3.921875 L 3.5 3.1875 L 12.171875 -5.171875 Z M 15.828125 -1.359375 L 8.3125 -1.171875 L 6.015625 5.796875 L 5.3125 5.078125 L 5.09375 5.28125 L 8.78125 9.09375 L 9 8.890625 L 8.3125 8.1875 L 11 -0.84375 L 16.21875 -0.953125 L 16.921875 -0.234375 L 17.125 -0.453125 L 15.34375 -2.296875 L 15.140625 -2.078125 Z M 15.828125 -1.359375 "/></g></g></g><g fill="#000000" fill-opacity="1"><g transform="translate(72.767453, 302.124697)"><g><path d="M 8.46875 1.578125 C 8.5625 1.660156 8.679688 1.613281 8.828125 1.4375 L 11.46875 -1.671875 C 11.613281 -1.847656 11.640625 -1.976562 11.546875 -2.0625 C 11.460938 -2.132812 11.34375 -2.085938 11.1875 -1.921875 C 10.726562 -1.484375 10.296875 -1.226562 9.890625 -1.15625 C 9.492188 -1.082031 9.117188 -1.195312 8.765625 -1.5 L 7.890625 -2.234375 L 11.46875 -6.484375 L 12.5625 -5.546875 C 12.9375 -5.234375 13.207031 -4.890625 13.375 -4.515625 C 13.550781 -4.148438 13.644531 -3.78125 13.65625 -3.40625 C 13.675781 -3.03125 13.617188 -2.664062 13.484375 -2.3125 C 13.359375 -1.957031 13.195312 -1.632812 13 -1.34375 C 12.882812 -1.21875 12.875 -1.117188 12.96875 -1.046875 C 13.0625 -0.960938 13.164062 -0.984375 13.28125 -1.109375 L 14.921875 -3.296875 C 15.035156 -3.441406 15.078125 -3.578125 15.046875 -3.703125 C 15.015625 -3.828125 14.925781 -3.953125 14.78125 -4.078125 L 8.578125 -9.3125 L 8.390625 -9.078125 L 9.15625 -8.421875 L 1.390625 0.78125 L 0.625 0.125 L 0.4375 0.359375 L 7.234375 6.09375 C 7.390625 6.226562 7.523438 6.273438 7.640625 6.234375 C 7.753906 6.203125 7.867188 6.117188 7.984375 5.984375 L 9.96875 3.640625 C 10.09375 3.484375 10.109375 3.363281 10.015625 3.28125 C 9.921875 3.207031 9.796875 3.234375 9.640625 3.359375 C 9.265625 3.648438 8.898438 3.914062 8.546875 4.15625 C 8.203125 4.394531 7.847656 4.550781 7.484375 4.625 C 7.117188 4.707031 6.738281 4.695312 6.34375 4.59375 C 5.945312 4.5 5.519531 4.257812 5.0625 3.875 L 3.703125 2.71875 L 7.6875 -2 L 8.5625 -1.265625 C 8.914062 -0.960938 9.09375 -0.609375 9.09375 -0.203125 C 9.09375 0.203125 8.910156 0.664062 8.546875 1.1875 C 8.410156 1.375 8.382812 1.503906 8.46875 1.578125 Z M 8.46875 1.578125 "/></g></g></g><g fill="#000000" fill-opacity="1"><g transform="translate(85.828474, 312.758546)"><g><path d="M 12.125 -7 L 7.625 -10.09375 L 7.46875 -9.859375 L 8.3125 -9.28125 L 1.5 0.65625 L 0.65625 0.078125 L 0.484375 0.328125 L 4.984375 3.421875 C 5.710938 3.910156 6.445312 4.1875 7.1875 4.25 C 7.9375 4.320312 8.648438 4.238281 9.328125 4 C 10.015625 3.757812 10.664062 3.382812 11.28125 2.875 C 11.90625 2.375 12.4375 1.800781 12.875 1.15625 C 13.320312 0.5 13.664062 -0.195312 13.90625 -0.9375 C 14.15625 -1.6875 14.269531 -2.425781 14.25 -3.15625 C 14.226562 -3.894531 14.050781 -4.597656 13.71875 -5.265625 C 13.382812 -5.929688 12.851562 -6.507812 12.125 -7 Z M 3.984375 2.359375 L 10.796875 -7.578125 L 11.59375 -7.03125 C 11.875 -6.84375 12.085938 -6.597656 12.234375 -6.296875 C 12.390625 -6.003906 12.4375 -5.628906 12.375 -5.171875 C 12.320312 -4.710938 12.140625 -4.144531 11.828125 -3.46875 C 11.523438 -2.800781 11.054688 -2.003906 10.421875 -1.078125 L 9.921875 -0.328125 C 9.265625 0.617188 8.675781 1.351562 8.15625 1.875 C 7.644531 2.40625 7.1875 2.78125 6.78125 3 C 6.375 3.21875 6.007812 3.304688 5.6875 3.265625 C 5.375 3.234375 5.085938 3.125 4.828125 2.9375 Z M 3.984375 2.359375 "/></g></g></g><g fill="#000000" fill-opacity="1"><g transform="translate(100.734134, 322.498653)"><g/></g></g><g fill="#000000" fill-opacity="1"><g transform="translate(110.72248, 328.174153)"><g><path d="M 18.78125 -4.3125 C 18.769531 -4.28125 18.757812 -4.25 18.75 -4.21875 C 18.738281 -4.1875 18.710938 -4.148438 18.671875 -4.109375 L 13.734375 2.09375 L 14.640625 -7.015625 L 15.578125 -6.59375 L 15.6875 -6.875 L 11.296875 -8.828125 L 11.1875 -8.546875 L 12 -8.1875 L 11.65625 -4.3125 L 8.28125 -0.28125 L 9.109375 -9.453125 L 9.96875 -9.078125 L 10.078125 -9.359375 L 5.53125 -11.375 L 5.421875 -11.09375 L 6.34375 -10.6875 L 5.203125 2.421875 L 6.25 2.890625 L 11.6875 -3.65625 L 10.71875 4.859375 L 11.75 5.3125 L 19.15625 -3.984375 C 19.394531 -4.273438 19.648438 -4.429688 19.921875 -4.453125 C 20.191406 -4.484375 20.453125 -4.441406 20.703125 -4.328125 L 20.8125 -4.609375 L 18.375 -5.6875 L 18.265625 -5.40625 C 18.566406 -5.269531 18.742188 -5.09375 18.796875 -4.875 C 18.859375 -4.664062 18.851562 -4.476562 18.78125 -4.3125 Z M 18.78125 -4.3125 "/></g></g></g><g fill="#000000" fill-opacity="1"><g transform="translate(132.647565, 337.212299)"><g><path d="M 9.34375 -9.953125 L 9.4375 -10.234375 L 4.640625 -11.796875 L 4.546875 -11.515625 L 5.5 -11.203125 L 1.796875 0.265625 L 0.84375 -0.046875 L 0.75 0.234375 L 5.546875 1.796875 L 5.640625 1.515625 L 4.671875 1.203125 L 8.375 -10.265625 Z M 9.34375 -9.953125 "/></g></g></g><g fill="#000000" fill-opacity="1"><g transform="translate(144.818353, 340.969637)"><g><path d="M 7.09375 1.328125 L 9.796875 -10.40625 L 10.546875 -10.234375 C 11.160156 -10.097656 11.617188 -9.679688 11.921875 -8.984375 C 12.234375 -8.285156 12.363281 -7.398438 12.3125 -6.328125 L 12.671875 -6.25 L 13.15625 -9.546875 C 13.164062 -9.660156 13.144531 -9.757812 13.09375 -9.84375 C 13.039062 -9.925781 12.914062 -9.988281 12.71875 -10.03125 L 3.984375 -12.046875 C 3.816406 -12.085938 3.695312 -12.078125 3.625 -12.015625 C 3.550781 -11.960938 3.5 -11.878906 3.46875 -11.765625 L 2.4375 -8.59375 L 2.8125 -8.515625 C 3.226562 -9.503906 3.722656 -10.242188 4.296875 -10.734375 C 4.878906 -11.234375 5.476562 -11.410156 6.09375 -11.265625 L 6.859375 -11.09375 L 4.15625 0.640625 L 3.171875 0.421875 L 3.109375 0.71875 L 8.015625 1.84375 L 8.078125 1.546875 Z M 7.09375 1.328125 "/></g></g></g><g fill="#000000" fill-opacity="1"><g transform="translate(161.965613, 344.621486)"><g><path d="M 7.234375 -11.84375 L 2.25 -12.453125 L 2.21875 -12.15625 L 3.203125 -12.046875 L 1.734375 -0.09375 L 0.75 -0.203125 L 0.71875 0.09375 L 5.703125 0.703125 L 5.734375 0.40625 L 4.734375 0.28125 L 5.5 -5.90625 L 9.015625 -5.484375 L 8.25 0.703125 L 7.25 0.578125 L 7.21875 0.875 L 12.21875 1.484375 L 12.25 1.1875 L 11.25 1.078125 L 12.71875 -10.890625 L 13.71875 -10.78125 L 13.75 -11.09375 L 8.75 -11.703125 L 8.71875 -11.390625 L 9.71875 -11.265625 L 9.0625 -5.90625 L 5.546875 -6.328125 L 6.203125 -11.671875 L 7.203125 -11.546875 Z M 7.234375 -11.84375 "/></g></g></g><g fill="#000000" fill-opacity="1"><g transform="translate(180.897969, 346.49474)"><g/></g></g><g fill="#000000" fill-opacity="1"><g transform="translate(192.249691, 346.749376)"><g><path d="M 0.75 -0.328125 L 0.765625 -0.03125 L 9.984375 -0.453125 L 9.8125 -4.09375 C 9.800781 -4.289062 9.726562 -4.390625 9.59375 -4.390625 C 9.488281 -4.378906 9.429688 -4.304688 9.421875 -4.171875 C 9.378906 -3.691406 9.300781 -3.242188 9.1875 -2.828125 C 9.082031 -2.410156 8.925781 -2.039062 8.71875 -1.71875 C 8.507812 -1.40625 8.253906 -1.15625 7.953125 -0.96875 C 7.660156 -0.78125 7.316406 -0.675781 6.921875 -0.65625 L 4.78125 -0.5625 L 4.234375 -12.546875 L 5.25 -12.59375 L 5.234375 -12.890625 L 0.1875 -12.65625 L 0.203125 -12.359375 L 1.21875 -12.40625 L 1.765625 -0.375 Z M 0.75 -0.328125 "/></g></g></g><g fill="#000000" fill-opacity="1"><g transform="translate(209.165683, 345.710139)"><g><path d="M -0.296875 -6.34375 C -0.171875 -5.53125 0.0703125 -4.757812 0.4375 -4.03125 C 0.8125 -3.300781 1.289062 -2.664062 1.875 -2.125 C 2.46875 -1.59375 3.160156 -1.195312 3.953125 -0.9375 C 4.753906 -0.6875 5.644531 -0.632812 6.625 -0.78125 C 7.601562 -0.925781 8.429688 -1.238281 9.109375 -1.71875 C 9.796875 -2.195312 10.34375 -2.78125 10.75 -3.46875 C 11.164062 -4.15625 11.441406 -4.898438 11.578125 -5.703125 C 11.710938 -6.515625 11.71875 -7.328125 11.59375 -8.140625 C 11.476562 -8.953125 11.234375 -9.726562 10.859375 -10.46875 C 10.484375 -11.207031 10 -11.84375 9.40625 -12.375 C 8.820312 -12.90625 8.128906 -13.300781 7.328125 -13.5625 C 6.535156 -13.820312 5.648438 -13.878906 4.671875 -13.734375 C 3.691406 -13.585938 2.859375 -13.269531 2.171875 -12.78125 C 1.492188 -12.300781 0.945312 -11.71875 0.53125 -11.03125 C 0.125 -10.351562 -0.140625 -9.601562 -0.265625 -8.78125 C -0.398438 -7.96875 -0.410156 -7.15625 -0.296875 -6.34375 Z M 4.71875 -13.390625 C 5.238281 -13.460938 5.671875 -13.421875 6.015625 -13.265625 C 6.359375 -13.117188 6.644531 -12.847656 6.875 -12.453125 C 7.113281 -12.054688 7.304688 -11.535156 7.453125 -10.890625 C 7.609375 -10.253906 7.753906 -9.472656 7.890625 -8.546875 L 8.171875 -6.6875 C 8.328125 -5.664062 8.429688 -4.8125 8.484375 -4.125 C 8.535156 -3.445312 8.503906 -2.894531 8.390625 -2.46875 C 8.273438 -2.050781 8.070312 -1.738281 7.78125 -1.53125 C 7.5 -1.320312 7.097656 -1.179688 6.578125 -1.109375 C 6.054688 -1.023438 5.625 -1.039062 5.28125 -1.15625 C 4.9375 -1.269531 4.65625 -1.507812 4.4375 -1.875 C 4.21875 -2.25 4.023438 -2.769531 3.859375 -3.4375 C 3.703125 -4.101562 3.546875 -4.945312 3.390625 -5.96875 L 3.109375 -7.828125 C 2.972656 -8.753906 2.882812 -9.546875 2.84375 -10.203125 C 2.800781 -10.859375 2.828125 -11.410156 2.921875 -11.859375 C 3.023438 -12.304688 3.21875 -12.648438 3.5 -12.890625 C 3.789062 -13.140625 4.195312 -13.304688 4.71875 -13.390625 Z M 4.71875 -13.390625 "/></g></g></g><g fill="#000000" fill-opacity="1"><g transform="translate(228.379136, 342.426653)"><g><path d="M 6.796875 -1.59375 L 6.984375 -13.625 C 6.984375 -14 7.066406 -14.273438 7.234375 -14.453125 C 7.398438 -14.640625 7.648438 -14.773438 7.984375 -14.859375 L 7.90625 -15.140625 L 5.328125 -14.46875 L 5.40625 -14.1875 C 5.757812 -14.28125 6.015625 -14.273438 6.171875 -14.171875 C 6.335938 -14.066406 6.441406 -13.925781 6.484375 -13.75 C 6.492188 -13.707031 6.5 -13.65625 6.5 -13.59375 C 6.5 -13.53125 6.507812 -13.425781 6.53125 -13.28125 L 6.390625 -4.984375 L 1.21875 -13.09375 L 2.1875 -13.34375 L 2.109375 -13.625 L -2.78125 -12.328125 L -2.703125 -12.046875 L -1.75 -12.296875 L 5.328125 -1.203125 Z M 6.796875 -1.59375 "/></g></g></g><g fill="#000000" fill-opacity="1"><g transform="translate(245.735247, 337.505736)"><g><path d="M 5.546875 -6.609375 C 5.660156 -6.648438 5.675781 -6.773438 5.59375 -6.984375 L 4.171875 -10.8125 C 4.085938 -11.03125 3.988281 -11.117188 3.875 -11.078125 C 3.757812 -11.035156 3.738281 -10.90625 3.8125 -10.6875 C 3.976562 -10.082031 3.992188 -9.582031 3.859375 -9.1875 C 3.722656 -8.800781 3.4375 -8.523438 3 -8.359375 L 1.921875 -7.96875 L -0.015625 -13.171875 L 1.34375 -13.671875 C 1.800781 -13.835938 2.226562 -13.90625 2.625 -13.875 C 3.03125 -13.84375 3.398438 -13.738281 3.734375 -13.5625 C 4.078125 -13.394531 4.375 -13.164062 4.625 -12.875 C 4.875 -12.59375 5.066406 -12.296875 5.203125 -11.984375 C 5.253906 -11.828125 5.34375 -11.769531 5.46875 -11.8125 C 5.582031 -11.851562 5.613281 -11.953125 5.5625 -12.109375 L 4.46875 -14.609375 C 4.394531 -14.796875 4.296875 -14.90625 4.171875 -14.9375 C 4.046875 -14.96875 3.894531 -14.945312 3.71875 -14.875 L -3.890625 -12.046875 L -3.78125 -11.765625 L -2.828125 -12.109375 L 1.375 -0.828125 L 0.421875 -0.484375 L 0.53125 -0.203125 L 8.859375 -3.296875 C 9.054688 -3.367188 9.164062 -3.460938 9.1875 -3.578125 C 9.21875 -3.703125 9.203125 -3.847656 9.140625 -4.015625 L 8.078125 -6.890625 C 8.003906 -7.078125 7.90625 -7.148438 7.78125 -7.109375 C 7.664062 -7.066406 7.628906 -6.941406 7.671875 -6.734375 C 7.734375 -6.265625 7.78125 -5.816406 7.8125 -5.390625 C 7.851562 -4.972656 7.816406 -4.585938 7.703125 -4.234375 C 7.597656 -3.878906 7.40625 -3.554688 7.125 -3.265625 C 6.84375 -2.972656 6.421875 -2.722656 5.859375 -2.515625 L 4.1875 -1.890625 L 2.03125 -7.6875 L 3.109375 -8.078125 C 3.546875 -8.242188 3.941406 -8.226562 4.296875 -8.03125 C 4.648438 -7.832031 4.960938 -7.441406 5.234375 -6.859375 C 5.328125 -6.648438 5.429688 -6.566406 5.546875 -6.609375 Z M 5.546875 -6.609375 "/></g></g></g><g fill="#000000" fill-opacity="1"><g transform="translate(261.273501, 331.330399)"><g/></g></g><g fill="#000000" fill-opacity="1"><g transform="translate(271.589599, 326.424546)"><g><path d="M 0.328125 -13.9375 C 0.359375 -13.882812 0.328125 -13.828125 0.234375 -13.765625 C -0.148438 -13.546875 -0.394531 -13.257812 -0.5 -12.90625 C -0.601562 -12.5625 -0.554688 -12.222656 -0.359375 -11.890625 C -0.160156 -11.546875 0.113281 -11.304688 0.46875 -11.171875 C 0.820312 -11.035156 1.222656 -11.097656 1.671875 -11.359375 C 2.117188 -11.617188 2.363281 -11.953125 2.40625 -12.359375 C 2.445312 -12.765625 2.363281 -13.144531 2.15625 -13.5 C 2.019531 -13.738281 1.828125 -13.9375 1.578125 -14.09375 C 1.335938 -14.257812 1.046875 -14.363281 0.703125 -14.40625 C 0.359375 -14.445312 -0.0234375 -14.414062 -0.453125 -14.3125 C -0.878906 -14.207031 -1.347656 -14.003906 -1.859375 -13.703125 C -2.472656 -13.347656 -2.960938 -12.972656 -3.328125 -12.578125 C -3.703125 -12.179688 -3.96875 -11.78125 -4.125 -11.375 C -4.28125 -10.96875 -4.328125 -10.5625 -4.265625 -10.15625 C -4.210938 -9.75 -4.082031 -9.359375 -3.875 -8.984375 C -3.632812 -8.585938 -3.363281 -8.273438 -3.0625 -8.046875 C -2.769531 -7.828125 -2.453125 -7.6875 -2.109375 -7.625 C -1.765625 -7.5625 -1.398438 -7.5625 -1.015625 -7.625 C -0.640625 -7.695312 -0.242188 -7.835938 0.171875 -8.046875 C -0.210938 -7.753906 -0.554688 -7.429688 -0.859375 -7.078125 C -1.171875 -6.722656 -1.40625 -6.335938 -1.5625 -5.921875 C -1.71875 -5.503906 -1.785156 -5.070312 -1.765625 -4.625 C -1.742188 -4.1875 -1.597656 -3.734375 -1.328125 -3.265625 C -1.015625 -2.734375 -0.625 -2.328125 -0.15625 -2.046875 C 0.300781 -1.773438 0.789062 -1.617188 1.3125 -1.578125 C 1.84375 -1.535156 2.40625 -1.597656 3 -1.765625 C 3.601562 -1.941406 4.191406 -2.195312 4.765625 -2.53125 C 5.617188 -3.03125 6.253906 -3.566406 6.671875 -4.140625 C 7.097656 -4.710938 7.363281 -5.300781 7.46875 -5.90625 C 7.570312 -6.507812 7.550781 -7.101562 7.40625 -7.6875 C 7.257812 -8.28125 7.035156 -8.832031 6.734375 -9.34375 C 7.296875 -9.664062 7.710938 -10.015625 7.984375 -10.390625 C 8.265625 -10.773438 8.441406 -11.160156 8.515625 -11.546875 C 8.585938 -11.941406 8.570312 -12.328125 8.46875 -12.703125 C 8.363281 -13.085938 8.210938 -13.453125 8.015625 -13.796875 C 7.847656 -14.078125 7.65625 -14.335938 7.4375 -14.578125 C 7.21875 -14.816406 6.988281 -15.003906 6.75 -15.140625 C 6.507812 -15.285156 6.265625 -15.375 6.015625 -15.40625 C 5.773438 -15.4375 5.554688 -15.390625 5.359375 -15.265625 C 5.035156 -15.085938 4.84375 -14.867188 4.78125 -14.609375 C 4.71875 -14.347656 4.769531 -14.082031 4.9375 -13.8125 C 5.082031 -13.550781 5.273438 -13.40625 5.515625 -13.375 C 5.765625 -13.34375 6 -13.390625 6.21875 -13.515625 C 6.394531 -13.617188 6.53125 -13.757812 6.625 -13.9375 C 6.726562 -14.113281 6.773438 -14.34375 6.765625 -14.625 C 6.960938 -14.519531 7.125 -14.351562 7.25 -14.125 C 7.582031 -13.5625 7.601562 -13.054688 7.3125 -12.609375 C 7.019531 -12.171875 6.414062 -11.679688 5.5 -11.140625 C 5.070312 -10.898438 4.695312 -10.675781 4.375 -10.46875 C 4.0625 -10.269531 3.789062 -10.082031 3.5625 -9.90625 C 3.332031 -9.726562 3.140625 -9.554688 2.984375 -9.390625 C 2.835938 -9.222656 2.722656 -9.050781 2.640625 -8.875 C 2.492188 -8.613281 2.40625 -8.34375 2.375 -8.0625 C 2.351562 -7.789062 2.367188 -7.515625 2.421875 -7.234375 C 2.484375 -6.960938 2.554688 -6.695312 2.640625 -6.4375 C 2.734375 -6.1875 2.84375 -5.957031 2.96875 -5.75 C 3.207031 -5.34375 3.476562 -5.078125 3.78125 -4.953125 C 4.082031 -4.835938 4.394531 -4.875 4.71875 -5.0625 C 4.976562 -5.207031 5.140625 -5.398438 5.203125 -5.640625 C 5.273438 -5.890625 5.234375 -6.148438 5.078125 -6.421875 C 4.910156 -6.703125 4.707031 -6.863281 4.46875 -6.90625 C 4.226562 -6.957031 3.992188 -6.914062 3.765625 -6.78125 C 3.546875 -6.65625 3.359375 -6.476562 3.203125 -6.25 C 2.984375 -6.625 3.003906 -6.941406 3.265625 -7.203125 C 3.535156 -7.472656 4.003906 -7.800781 4.671875 -8.1875 C 5.003906 -8.382812 5.335938 -8.570312 5.671875 -8.75 C 6.003906 -8.925781 6.257812 -9.054688 6.4375 -9.140625 C 6.695312 -8.679688 6.890625 -8.179688 7.015625 -7.640625 C 7.148438 -7.097656 7.164062 -6.539062 7.0625 -5.96875 C 6.96875 -5.40625 6.722656 -4.847656 6.328125 -4.296875 C 5.929688 -3.753906 5.351562 -3.257812 4.59375 -2.8125 C 4.257812 -2.613281 3.929688 -2.53125 3.609375 -2.5625 C 3.296875 -2.601562 2.984375 -2.71875 2.671875 -2.90625 C 2.359375 -3.101562 2.0625 -3.363281 1.78125 -3.6875 C 1.507812 -4.007812 1.265625 -4.363281 1.046875 -4.75 C 0.816406 -5.125 0.664062 -5.507812 0.59375 -5.90625 C 0.519531 -6.300781 0.5 -6.675781 0.53125 -7.03125 C 0.570312 -7.382812 0.660156 -7.691406 0.796875 -7.953125 C 0.941406 -8.222656 1.117188 -8.421875 1.328125 -8.546875 L 1.828125 -8.84375 C 1.984375 -8.925781 2.03125 -9.019531 1.96875 -9.125 C 1.945312 -9.15625 1.910156 -9.175781 1.859375 -9.1875 C 1.804688 -9.207031 1.734375 -9.191406 1.640625 -9.140625 L 1.140625 -8.84375 C 0.941406 -8.71875 0.710938 -8.648438 0.453125 -8.640625 C 0.203125 -8.628906 -0.0625 -8.675781 -0.34375 -8.78125 C -0.632812 -8.882812 -0.910156 -9.050781 -1.171875 -9.28125 C -1.441406 -9.519531 -1.679688 -9.8125 -1.890625 -10.15625 C -2.117188 -10.5625 -2.273438 -10.9375 -2.359375 -11.28125 C -2.441406 -11.625 -2.46875 -11.9375 -2.4375 -12.21875 C -2.40625 -12.5 -2.316406 -12.738281 -2.171875 -12.9375 C -2.035156 -13.132812 -1.863281 -13.296875 -1.65625 -13.421875 C -1.40625 -13.566406 -1.164062 -13.6875 -0.9375 -13.78125 C -0.707031 -13.875 -0.5 -13.929688 -0.3125 -13.953125 C -0.125 -13.984375 0.0195312 -13.992188 0.125 -13.984375 C 0.238281 -13.984375 0.304688 -13.96875 0.328125 -13.9375 Z M 0.328125 -13.9375 "/></g></g></g><g fill="#000000" fill-opacity="1"><g transform="translate(288.970954, 315.715758)"><g/></g></g><g fill="#000000" fill-opacity="1"><g transform="translate(298.161211, 309.015171)"><g><path d="M -0.375 -15.1875 C -0.769531 -15.21875 -1.207031 -15.164062 -1.6875 -15.03125 C -2.175781 -14.894531 -2.691406 -14.597656 -3.234375 -14.140625 C -4.035156 -13.460938 -4.613281 -12.726562 -4.96875 -11.9375 C -5.320312 -11.144531 -5.492188 -10.347656 -5.484375 -9.546875 C -5.484375 -8.742188 -5.328125 -7.957031 -5.015625 -7.1875 C -4.710938 -6.414062 -4.296875 -5.710938 -3.765625 -5.078125 C -3.234375 -4.453125 -2.613281 -3.925781 -1.90625 -3.5 C -1.195312 -3.082031 -0.453125 -2.804688 0.328125 -2.671875 C 1.117188 -2.535156 1.929688 -2.578125 2.765625 -2.796875 C 3.609375 -3.015625 4.425781 -3.457031 5.21875 -4.125 C 5.570312 -4.425781 5.859375 -4.738281 6.078125 -5.0625 C 6.296875 -5.382812 6.457031 -5.691406 6.5625 -5.984375 C 6.664062 -6.273438 6.726562 -6.535156 6.75 -6.765625 C 6.78125 -6.992188 6.796875 -7.179688 6.796875 -7.328125 L 8.0625 -6.984375 C 8.21875 -6.953125 8.320312 -6.957031 8.375 -7 C 8.414062 -7.039062 8.390625 -7.117188 8.296875 -7.234375 L 5.53125 -10.484375 C 5.425781 -10.609375 5.335938 -10.640625 5.265625 -10.578125 C 5.191406 -10.515625 5.191406 -10.410156 5.265625 -10.265625 C 5.367188 -10.085938 5.488281 -9.859375 5.625 -9.578125 C 5.757812 -9.304688 5.878906 -9.007812 5.984375 -8.6875 C 6.097656 -8.363281 6.179688 -8.019531 6.234375 -7.65625 C 6.296875 -7.289062 6.296875 -6.914062 6.234375 -6.53125 C 6.179688 -6.15625 6.054688 -5.785156 5.859375 -5.421875 C 5.671875 -5.054688 5.382812 -4.707031 5 -4.375 C 4.644531 -4.070312 4.296875 -3.867188 3.953125 -3.765625 C 3.617188 -3.671875 3.242188 -3.695312 2.828125 -3.84375 C 2.421875 -3.988281 1.957031 -4.289062 1.4375 -4.75 C 0.914062 -5.207031 0.300781 -5.859375 -0.40625 -6.703125 L -1.625 -8.125 C -2.34375 -8.976562 -2.894531 -9.691406 -3.28125 -10.265625 C -3.675781 -10.835938 -3.921875 -11.332031 -4.015625 -11.75 C -4.109375 -12.175781 -4.054688 -12.554688 -3.859375 -12.890625 C -3.671875 -13.222656 -3.351562 -13.578125 -2.90625 -13.953125 C -2.550781 -14.253906 -2.1875 -14.460938 -1.8125 -14.578125 C -1.4375 -14.691406 -1.039062 -14.726562 -0.625 -14.6875 C -0.207031 -14.65625 0.222656 -14.546875 0.671875 -14.359375 C 1.117188 -14.179688 1.585938 -13.953125 2.078125 -13.671875 C 2.179688 -13.597656 2.273438 -13.59375 2.359375 -13.65625 C 2.421875 -13.71875 2.410156 -13.796875 2.328125 -13.890625 L 0.1875 -16.421875 C 0.0625 -16.566406 -0.0546875 -16.59375 -0.171875 -16.5 C -0.242188 -16.425781 -0.273438 -16.320312 -0.265625 -16.1875 Z M -0.375 -15.1875 "/></g></g></g><g fill="#000000" fill-opacity="1"><g transform="translate(311.658221, 297.186345)"><g><path d="M -5.203125 -13.03125 L 0.5 -2.375 C 0.632812 -2.125 0.691406 -1.847656 0.671875 -1.546875 C 0.648438 -1.242188 0.5 -0.953125 0.21875 -0.671875 L 0.4375 -0.46875 L 2.390625 -2.5 L 2.171875 -2.703125 C 2.015625 -2.546875 1.875 -2.429688 1.75 -2.359375 C 1.625 -2.296875 1.507812 -2.257812 1.40625 -2.25 C 1.300781 -2.238281 1.210938 -2.253906 1.140625 -2.296875 C 1.078125 -2.335938 1.019531 -2.378906 0.96875 -2.421875 C 0.90625 -2.472656 0.859375 -2.519531 0.828125 -2.5625 C 0.796875 -2.601562 0.753906 -2.671875 0.703125 -2.765625 L -0.5625 -5.078125 L 2.046875 -7.796875 L 5.484375 -6.171875 L 4.78125 -5.4375 L 5 -5.234375 L 8.46875 -8.875 L 8.25 -9.078125 L 7.5625 -8.34375 L -4.296875 -13.96875 Z M -3.390625 -10.390625 L 1.75 -7.9375 L -0.703125 -5.375 Z M -3.390625 -10.390625 "/></g></g></g><g fill="#000000" fill-opacity="1"><g transform="translate(324.504004, 283.24884)"><g><path d="M 4.625 -9.421875 L 3.375 -10.375 C 2.820312 -10.800781 2.195312 -10.988281 1.5 -10.9375 C 0.800781 -10.882812 0.109375 -10.503906 -0.578125 -9.796875 C -0.421875 -10.097656 -0.28125 -10.429688 -0.15625 -10.796875 C -0.03125 -11.160156 0.03125 -11.523438 0.03125 -11.890625 C 0.03125 -12.253906 -0.0507812 -12.617188 -0.21875 -12.984375 C -0.382812 -13.359375 -0.675781 -13.707031 -1.09375 -14.03125 C -1.957031 -14.695312 -2.820312 -14.90625 -3.6875 -14.65625 C -4.550781 -14.40625 -5.375 -13.773438 -6.15625 -12.765625 L -9.6875 -8.15625 L -9.453125 -7.96875 L -8.828125 -8.765625 L 0.734375 -1.4375 L 0.109375 -0.640625 L 0.34375 -0.453125 L 3.421875 -4.453125 L 3.1875 -4.640625 L 2.5625 -3.828125 L -2.21875 -7.5 L -1.640625 -8.265625 C -1.484375 -8.460938 -1.3125 -8.625 -1.125 -8.75 C -0.945312 -8.875 -0.742188 -8.9375 -0.515625 -8.9375 C -0.285156 -8.9375 -0.0195312 -8.863281 0.28125 -8.71875 C 0.59375 -8.582031 0.957031 -8.351562 1.375 -8.03125 L 2.375 -7.265625 C 2.78125 -6.953125 3.164062 -6.726562 3.53125 -6.59375 C 3.894531 -6.46875 4.226562 -6.421875 4.53125 -6.453125 C 4.832031 -6.492188 5.109375 -6.601562 5.359375 -6.78125 C 5.617188 -6.96875 5.859375 -7.203125 6.078125 -7.484375 C 6.398438 -7.910156 6.597656 -8.398438 6.671875 -8.953125 C 6.742188 -9.503906 6.617188 -10.085938 6.296875 -10.703125 C 6.273438 -10.742188 6.253906 -10.78125 6.234375 -10.8125 C 6.210938 -10.851562 6.179688 -10.890625 6.140625 -10.921875 C 6.085938 -10.960938 6.046875 -10.957031 6.015625 -10.90625 C 5.972656 -10.851562 5.992188 -10.738281 6.078125 -10.5625 C 6.222656 -10.1875 6.296875 -9.878906 6.296875 -9.640625 C 6.296875 -9.410156 6.25 -9.238281 6.15625 -9.125 C 5.96875 -8.882812 5.742188 -8.8125 5.484375 -8.90625 C 5.222656 -9.007812 4.9375 -9.179688 4.625 -9.421875 Z M -2.03125 -8.21875 L -2.453125 -7.671875 L -7 -11.15625 L -6.578125 -11.703125 C -6.429688 -11.890625 -6.253906 -12.070312 -6.046875 -12.25 C -5.835938 -12.425781 -5.585938 -12.539062 -5.296875 -12.59375 C -5.015625 -12.644531 -4.671875 -12.609375 -4.265625 -12.484375 C -3.867188 -12.367188 -3.40625 -12.109375 -2.875 -11.703125 C -2.382812 -11.328125 -2.035156 -10.96875 -1.828125 -10.625 C -1.628906 -10.28125 -1.519531 -9.960938 -1.5 -9.671875 C -1.476562 -9.390625 -1.523438 -9.125 -1.640625 -8.875 C -1.753906 -8.625 -1.882812 -8.40625 -2.03125 -8.21875 Z M -2.03125 -8.21875 "/></g></g></g><g fill="#000000" fill-opacity="1"><g transform="translate(335.661479, 268.116833)"><g><path d="M 0.328125 -8.609375 C 0.390625 -8.722656 0.320312 -8.835938 0.125 -8.953125 L -3.34375 -11.09375 C -3.539062 -11.21875 -3.671875 -11.222656 -3.734375 -11.109375 C -3.796875 -11.015625 -3.726562 -10.898438 -3.53125 -10.765625 C -3.03125 -10.390625 -2.710938 -10.007812 -2.578125 -9.625 C -2.453125 -9.238281 -2.507812 -8.84375 -2.75 -8.4375 L -3.359375 -7.46875 L -8.09375 -10.390625 L -7.328125 -11.609375 C -7.078125 -12.023438 -6.78125 -12.347656 -6.4375 -12.578125 C -6.09375 -12.804688 -5.734375 -12.953125 -5.359375 -13.015625 C -4.992188 -13.085938 -4.625 -13.082031 -4.25 -13 C -3.875 -12.925781 -3.535156 -12.8125 -3.234375 -12.65625 C -3.097656 -12.570312 -3 -12.582031 -2.9375 -12.6875 C -2.875 -12.789062 -2.910156 -12.882812 -3.046875 -12.96875 L -5.4375 -14.265625 C -5.613281 -14.367188 -5.757812 -14.394531 -5.875 -14.34375 C -5.988281 -14.289062 -6.09375 -14.1875 -6.1875 -14.03125 L -10.453125 -7.125 L -10.203125 -6.96875 L -9.671875 -7.828125 L 0.578125 -1.5 L 0.046875 -0.640625 L 0.296875 -0.484375 L 4.96875 -8.046875 C 5.070312 -8.222656 5.097656 -8.363281 5.046875 -8.46875 C 5.003906 -8.582031 4.90625 -8.6875 4.75 -8.78125 L 2.140625 -10.390625 C 1.972656 -10.492188 1.859375 -10.492188 1.796875 -10.390625 C 1.722656 -10.285156 1.757812 -10.160156 1.90625 -10.015625 C 2.257812 -9.691406 2.578125 -9.375 2.859375 -9.0625 C 3.140625 -8.757812 3.347656 -8.429688 3.484375 -8.078125 C 3.617188 -7.734375 3.664062 -7.359375 3.625 -6.953125 C 3.582031 -6.546875 3.40625 -6.085938 3.09375 -5.578125 L 2.15625 -4.0625 L -3.109375 -7.3125 L -2.5 -8.28125 C -2.257812 -8.6875 -1.9375 -8.914062 -1.53125 -8.96875 C -1.125 -9.019531 -0.632812 -8.90625 -0.0625 -8.625 C 0.132812 -8.519531 0.265625 -8.515625 0.328125 -8.609375 Z M 0.328125 -8.609375 "/></g></g></g><g fill="#000000" fill-opacity="1"><g transform="translate(150.073479, 261.437882)"><g><path d="M 7.578125 -7.09375 C 7.578125 -7.457031 7.492188 -7.769531 7.328125 -8.03125 C 7.171875 -8.289062 6.945312 -8.503906 6.65625 -8.671875 C 6.363281 -8.847656 6.019531 -8.972656 5.625 -9.046875 C 5.226562 -9.128906 4.785156 -9.171875 4.296875 -9.171875 L 0.4375 -9.171875 L 0.4375 -8.953125 L 1.171875 -8.953125 L 1.171875 -0.21875 L 0.4375 -0.21875 L 0.4375 0 L 4.671875 0 C 5.078125 0 5.460938 -0.0390625 5.828125 -0.125 C 6.203125 -0.207031 6.523438 -0.34375 6.796875 -0.53125 C 7.078125 -0.726562 7.300781 -0.992188 7.46875 -1.328125 C 7.632812 -1.660156 7.71875 -2.070312 7.71875 -2.5625 C 7.71875 -2.988281 7.625 -3.351562 7.4375 -3.65625 C 7.257812 -3.957031 7.03125 -4.203125 6.75 -4.390625 C 6.46875 -4.578125 6.164062 -4.71875 5.84375 -4.8125 C 5.519531 -4.914062 5.21875 -4.984375 4.9375 -5.015625 C 5.21875 -5.046875 5.515625 -5.085938 5.828125 -5.140625 C 6.140625 -5.191406 6.421875 -5.289062 6.671875 -5.4375 C 6.929688 -5.59375 7.144531 -5.796875 7.3125 -6.046875 C 7.488281 -6.304688 7.578125 -6.65625 7.578125 -7.09375 Z M 3.359375 -5.09375 L 3.359375 -8.953125 L 4.046875 -8.953125 C 4.515625 -8.953125 4.835938 -8.832031 5.015625 -8.59375 C 5.203125 -8.351562 5.296875 -7.945312 5.296875 -7.375 L 5.296875 -6.8125 C 5.296875 -6.257812 5.207031 -5.832031 5.03125 -5.53125 C 4.851562 -5.238281 4.5625 -5.09375 4.15625 -5.09375 Z M 3.359375 -0.21875 L 3.359375 -4.875 L 4.3125 -4.875 C 4.5625 -4.875 4.757812 -4.828125 4.90625 -4.734375 C 5.0625 -4.648438 5.179688 -4.519531 5.265625 -4.34375 C 5.347656 -4.164062 5.398438 -3.945312 5.421875 -3.6875 C 5.441406 -3.4375 5.453125 -3.15625 5.453125 -2.84375 L 5.453125 -2.265625 C 5.453125 -1.972656 5.445312 -1.703125 5.4375 -1.453125 C 5.425781 -1.203125 5.382812 -0.984375 5.3125 -0.796875 C 5.238281 -0.617188 5.125 -0.476562 4.96875 -0.375 C 4.820312 -0.269531 4.601562 -0.21875 4.3125 -0.21875 Z M 3.359375 -0.21875 "/></g></g></g><g fill="#000000" fill-opacity="1"><g transform="translate(162.179323, 261.437882)"><g><path d="M 6.65625 -9.171875 L 6.65625 -8.953125 C 6.96875 -8.953125 7.179688 -8.914062 7.296875 -8.84375 C 7.410156 -8.769531 7.46875 -8.664062 7.46875 -8.53125 C 7.46875 -8.40625 7.429688 -8.269531 7.359375 -8.125 L 5.59375 -4.546875 L 3.25 -8.96875 L 3.984375 -8.96875 L 3.984375 -9.1875 L 0.28125 -9.1875 L 0.28125 -8.96875 L 1 -8.96875 L 3.6875 -4.03125 L 3.6875 -0.21875 L 2.953125 -0.21875 L 2.953125 0 L 6.609375 0 L 6.609375 -0.21875 L 5.875 -0.21875 L 5.875 -4.375 L 7.71875 -8.125 C 7.769531 -8.238281 7.828125 -8.34375 7.890625 -8.4375 C 7.960938 -8.539062 8.039062 -8.628906 8.125 -8.703125 C 8.21875 -8.785156 8.328125 -8.847656 8.453125 -8.890625 C 8.585938 -8.929688 8.753906 -8.953125 8.953125 -8.953125 L 8.953125 -9.171875 Z M 6.65625 -9.171875 "/></g></g></g><g fill="#000000" fill-opacity="1"><g transform="translate(175.371726, 261.437882)"><g/></g></g><g fill="#000000" fill-opacity="1"><g transform="translate(183.253578, 261.437882)"><g><path d="M 6.921875 -8.578125 C 6.710938 -8.785156 6.441406 -8.960938 6.109375 -9.109375 C 5.773438 -9.265625 5.351562 -9.34375 4.84375 -9.34375 C 4.082031 -9.34375 3.414062 -9.203125 2.84375 -8.921875 C 2.28125 -8.648438 1.8125 -8.289062 1.4375 -7.84375 C 1.0625 -7.40625 0.773438 -6.898438 0.578125 -6.328125 C 0.390625 -5.765625 0.296875 -5.179688 0.296875 -4.578125 C 0.296875 -3.984375 0.390625 -3.398438 0.578125 -2.828125 C 0.773438 -2.265625 1.0625 -1.757812 1.4375 -1.3125 C 1.8125 -0.875 2.28125 -0.519531 2.84375 -0.25 C 3.414062 0.0195312 4.078125 0.15625 4.828125 0.15625 C 5.171875 0.15625 5.472656 0.117188 5.734375 0.046875 C 6.003906 -0.0234375 6.238281 -0.113281 6.4375 -0.21875 C 6.632812 -0.332031 6.796875 -0.445312 6.921875 -0.5625 C 7.046875 -0.6875 7.140625 -0.789062 7.203125 -0.875 L 7.75 -0.09375 C 7.8125 0 7.863281 0.046875 7.90625 0.046875 C 7.957031 0.046875 7.984375 -0.00390625 7.984375 -0.109375 L 7.984375 -3.203125 C 7.984375 -3.328125 7.945312 -3.390625 7.875 -3.390625 C 7.8125 -3.390625 7.765625 -3.328125 7.734375 -3.203125 C 7.703125 -3.054688 7.660156 -2.878906 7.609375 -2.671875 C 7.554688 -2.460938 7.484375 -2.238281 7.390625 -2 C 7.304688 -1.769531 7.191406 -1.539062 7.046875 -1.3125 C 6.910156 -1.082031 6.738281 -0.875 6.53125 -0.6875 C 6.320312 -0.507812 6.078125 -0.363281 5.796875 -0.25 C 5.523438 -0.132812 5.203125 -0.078125 4.828125 -0.078125 C 4.492188 -0.078125 4.207031 -0.125 3.96875 -0.21875 C 3.726562 -0.320312 3.523438 -0.507812 3.359375 -0.78125 C 3.203125 -1.0625 3.085938 -1.453125 3.015625 -1.953125 C 2.941406 -2.453125 2.90625 -3.101562 2.90625 -3.90625 L 2.90625 -5.265625 C 2.90625 -6.066406 2.929688 -6.71875 2.984375 -7.21875 C 3.046875 -7.726562 3.144531 -8.117188 3.28125 -8.390625 C 3.425781 -8.671875 3.628906 -8.859375 3.890625 -8.953125 C 4.160156 -9.046875 4.507812 -9.09375 4.9375 -9.09375 C 5.269531 -9.09375 5.566406 -9.035156 5.828125 -8.921875 C 6.085938 -8.804688 6.320312 -8.640625 6.53125 -8.421875 C 6.75 -8.210938 6.941406 -7.953125 7.109375 -7.640625 C 7.273438 -7.328125 7.425781 -6.976562 7.5625 -6.59375 C 7.582031 -6.5 7.628906 -6.453125 7.703125 -6.453125 C 7.765625 -6.453125 7.796875 -6.5 7.796875 -6.59375 L 7.796875 -9 C 7.796875 -9.144531 7.742188 -9.21875 7.640625 -9.21875 C 7.566406 -9.21875 7.5 -9.175781 7.4375 -9.09375 Z M 6.921875 -8.578125 "/></g></g></g><g fill="#000000" fill-opacity="1"><g transform="translate(195.807631, 261.437882)"><g><path d="M 5.4375 -3.078125 C 5.53125 -3.078125 5.578125 -3.160156 5.578125 -3.328125 L 5.578125 -6.296875 C 5.578125 -6.453125 5.53125 -6.53125 5.4375 -6.53125 C 5.351562 -6.53125 5.304688 -6.453125 5.296875 -6.296875 C 5.253906 -5.835938 5.140625 -5.492188 4.953125 -5.265625 C 4.765625 -5.035156 4.5 -4.921875 4.15625 -4.921875 L 3.328125 -4.921875 L 3.328125 -8.953125 L 4.375 -8.953125 C 4.726562 -8.953125 5.035156 -8.890625 5.296875 -8.765625 C 5.566406 -8.640625 5.796875 -8.472656 5.984375 -8.265625 C 6.171875 -8.066406 6.3125 -7.835938 6.40625 -7.578125 C 6.5 -7.328125 6.554688 -7.078125 6.578125 -6.828125 C 6.578125 -6.703125 6.625 -6.640625 6.71875 -6.640625 C 6.800781 -6.640625 6.84375 -6.703125 6.84375 -6.828125 L 6.75 -8.796875 C 6.738281 -8.941406 6.695312 -9.039062 6.625 -9.09375 C 6.550781 -9.144531 6.445312 -9.171875 6.3125 -9.171875 L 0.40625 -9.171875 L 0.40625 -8.953125 L 1.140625 -8.953125 L 1.140625 -0.21875 L 0.40625 -0.21875 L 0.40625 0 L 6.859375 0 C 7.003906 0 7.101562 -0.0351562 7.15625 -0.109375 C 7.207031 -0.179688 7.234375 -0.28125 7.234375 -0.40625 L 7.234375 -2.640625 C 7.234375 -2.785156 7.1875 -2.859375 7.09375 -2.859375 C 7 -2.859375 6.941406 -2.785156 6.921875 -2.640625 C 6.847656 -2.304688 6.769531 -1.988281 6.6875 -1.6875 C 6.601562 -1.394531 6.476562 -1.140625 6.3125 -0.921875 C 6.15625 -0.703125 5.941406 -0.53125 5.671875 -0.40625 C 5.410156 -0.28125 5.0625 -0.21875 4.625 -0.21875 L 3.328125 -0.21875 L 3.328125 -4.703125 L 4.15625 -4.703125 C 4.5 -4.703125 4.765625 -4.585938 4.953125 -4.359375 C 5.140625 -4.140625 5.253906 -3.796875 5.296875 -3.328125 C 5.304688 -3.160156 5.351562 -3.078125 5.4375 -3.078125 Z M 5.4375 -3.078125 "/></g></g></g><g fill="#000000" fill-opacity="1"><g transform="translate(207.587515, 261.437882)"><g><path d="M 6.921875 -8.578125 C 6.710938 -8.785156 6.441406 -8.960938 6.109375 -9.109375 C 5.773438 -9.265625 5.351562 -9.34375 4.84375 -9.34375 C 4.082031 -9.34375 3.414062 -9.203125 2.84375 -8.921875 C 2.28125 -8.648438 1.8125 -8.289062 1.4375 -7.84375 C 1.0625 -7.40625 0.773438 -6.898438 0.578125 -6.328125 C 0.390625 -5.765625 0.296875 -5.179688 0.296875 -4.578125 C 0.296875 -3.984375 0.390625 -3.398438 0.578125 -2.828125 C 0.773438 -2.265625 1.0625 -1.757812 1.4375 -1.3125 C 1.8125 -0.875 2.28125 -0.519531 2.84375 -0.25 C 3.414062 0.0195312 4.078125 0.15625 4.828125 0.15625 C 5.171875 0.15625 5.472656 0.117188 5.734375 0.046875 C 6.003906 -0.0234375 6.238281 -0.113281 6.4375 -0.21875 C 6.632812 -0.332031 6.796875 -0.445312 6.921875 -0.5625 C 7.046875 -0.6875 7.140625 -0.789062 7.203125 -0.875 L 7.75 -0.09375 C 7.8125 0 7.863281 0.046875 7.90625 0.046875 C 7.957031 0.046875 7.984375 -0.00390625 7.984375 -0.109375 L 7.984375 -3.203125 C 7.984375 -3.328125 7.945312 -3.390625 7.875 -3.390625 C 7.8125 -3.390625 7.765625 -3.328125 7.734375 -3.203125 C 7.703125 -3.054688 7.660156 -2.878906 7.609375 -2.671875 C 7.554688 -2.460938 7.484375 -2.238281 7.390625 -2 C 7.304688 -1.769531 7.191406 -1.539062 7.046875 -1.3125 C 6.910156 -1.082031 6.738281 -0.875 6.53125 -0.6875 C 6.320312 -0.507812 6.078125 -0.363281 5.796875 -0.25 C 5.523438 -0.132812 5.203125 -0.078125 4.828125 -0.078125 C 4.492188 -0.078125 4.207031 -0.125 3.96875 -0.21875 C 3.726562 -0.320312 3.523438 -0.507812 3.359375 -0.78125 C 3.203125 -1.0625 3.085938 -1.453125 3.015625 -1.953125 C 2.941406 -2.453125 2.90625 -3.101562 2.90625 -3.90625 L 2.90625 -5.265625 C 2.90625 -6.066406 2.929688 -6.71875 2.984375 -7.21875 C 3.046875 -7.726562 3.144531 -8.117188 3.28125 -8.390625 C 3.425781 -8.671875 3.628906 -8.859375 3.890625 -8.953125 C 4.160156 -9.046875 4.507812 -9.09375 4.9375 -9.09375 C 5.269531 -9.09375 5.566406 -9.035156 5.828125 -8.921875 C 6.085938 -8.804688 6.320312 -8.640625 6.53125 -8.421875 C 6.75 -8.210938 6.941406 -7.953125 7.109375 -7.640625 C 7.273438 -7.328125 7.425781 -6.976562 7.5625 -6.59375 C 7.582031 -6.5 7.628906 -6.453125 7.703125 -6.453125 C 7.765625 -6.453125 7.796875 -6.5 7.796875 -6.59375 L 7.796875 -9 C 7.796875 -9.144531 7.742188 -9.21875 7.640625 -9.21875 C 7.566406 -9.21875 7.5 -9.175781 7.4375 -9.09375 Z M 6.921875 -8.578125 "/></g></g></g><g fill="#000000" fill-opacity="1"><g transform="translate(220.141568, 261.437882)"><g><path d="M 4.234375 -8.953125 L 4.234375 -9.171875 L 0.578125 -9.171875 L 0.578125 -8.953125 L 1.3125 -8.953125 L 1.3125 -0.21875 L 0.578125 -0.21875 L 0.578125 0 L 4.234375 0 L 4.234375 -0.21875 L 3.5 -0.21875 L 3.5 -8.953125 Z M 4.234375 -8.953125 "/></g></g></g></svg>